<?xml version="1.0" encoding="UTF-8"?>
<!DOCTYPE svg PUBLIC "-//W3C//DTD SVG 1.1//EN" "http://www.w3.org/Graphics/SVG/1.1/DTD/svg11.dtd">
<!-- Creator: CorelDRAW X6 -->
<svg xmlns="http://www.w3.org/2000/svg" xml:space="preserve" width="8.27778in" height="1.06944in" version="1.1" style="shape-rendering:geometricPrecision; text-rendering:geometricPrecision; image-rendering:optimizeQuality; fill-rule:evenodd; clip-rule:evenodd"
viewBox="0 0 8278 1069"
 xmlns:xlink="http://www.w3.org/1999/xlink">
 <defs>
  <style type="text/css">
   <![CDATA[
    .fil0 {fill:#2F4660;fill-rule:nonzero}
    .fil2 {fill:#B94A78;fill-rule:nonzero}
    .fil1 {fill:#BB4A79;fill-rule:nonzero}
   ]]>
  </style>
 </defs>
 <g id="Layer_x0020_1">
  <metadata id="CorelCorpID_0Corel-Layer"/>
  <path class="fil0" d="M1626 682l-68 -130c-14,-43 -60,-66 -102,-52l-429 140c-13,-3 -28,-6 -44,-9l-391 -139c-43,-14 -107,19 -125,75l-60 111c-19,56 15,100 58,114l418 139c30,10 104,34 153,30 5,0 9,-1 13,-2l0 0c3,-1 6,-1 8,-2l538 -161c43,-14 46,-72 32,-115z"/>
  <path class="fil0" d="M1006 282c-52,0 -95,-20 -95,-44 0,-24 42,-44 95,-44 52,0 95,20 95,44 0,24 -42,44 -95,44zm10 -284l-1017 237 1032 331 981 -331 -996 -237z"/>
  <path class="fil1" d="M1945 915c0,15 -26,27 -41,27l0 0c-15,0 -41,-12 -41,-27l20 -607c0,-15 5,-27 20,-27l0 0c15,0 20,12 20,27l20 607z"/>
  <path class="fil2" d="M1966 487c0,38 -29,69 -64,69 -36,0 -64,-31 -64,-69 0,-38 29,-69 64,-69 35,0 64,31 64,69z"/>
  <path class="fil0" d="M2644 769c17,3 44,3 70,3 164,1 262,-89 262,-265 1,-153 -87,-241 -246,-241 -40,0 -69,3 -86,7l0 495zm-126 -587c56,-9 126,-14 201,-14 130,0 219,27 283,80 67,54 108,137 108,255 0,123 -42,216 -108,275 -69,63 -179,95 -314,95 -74,0 -130,-4 -171,-9l0 -681z"/>
  <path class="fil0" d="M3217 866l0 -501 127 0 0 501 -127 0zm135 -640c0,38 -28,68 -72,68 -42,0 -70,-30 -70,-68 0,-39 29,-69 71,-69 43,0 70,30 71,69z"/>
  <path class="fil0" d="M3607 656c0,12 1,24 4,35 12,51 58,88 111,88 80,0 127,-67 127,-165 0,-88 -43,-160 -124,-160 -52,0 -101,38 -113,94 -3,10 -5,22 -5,32l0 77zm-126 -124c0,-66 -2,-119 -4,-167l111 0 6 77 2 0c37,-57 96,-88 172,-88 115,0 211,99 211,255 0,181 -114,268 -228,268 -63,0 -115,-27 -141,-67l-2 0 0 259 -126 0 0 -538z"/>
  <polygon class="fil0" points="4082,866 4209,866 4209,136 4082,136 "/>
  <path class="fil0" d="M4444 616c0,97 47,170 124,170 72,0 122,-71 122,-172 0,-78 -35,-168 -121,-168 -89,0 -125,86 -125,170zm377 -5c0,184 -130,266 -257,266 -142,0 -251,-98 -251,-258 0,-164 108,-265 259,-265 149,0 249,105 249,257z"/>
  <path class="fil0" d="M4925 514c0,-58 -1,-106 -4,-149l109 0 5 74 3 0c25,-39 70,-85 154,-85 66,0 117,37 139,93l2 0c17,-28 38,-48 62,-63 28,-20 60,-30 101,-30 83,0 168,57 168,217l0 295 -123 0 0 -276c0,-83 -29,-133 -89,-133 -43,0 -75,31 -88,67 -3,12 -6,28 -6,42l0 300 -123 0 0 -290c0,-70 -28,-119 -86,-119 -47,0 -79,37 -90,72 -5,12 -7,27 -7,41l0 296 -123 0 0 -352z"/>
  <path class="fil0" d="M6062 621c-89,-2 -175,17 -175,94 0,49 32,72 72,72 50,0 87,-33 99,-69 3,-9 4,-20 4,-28l0 -69zm16 245l-8 -56 -3 0c-31,39 -83,67 -148,67 -101,0 -157,-73 -157,-149 0,-126 112,-190 297,-189l0 -8c0,-33 -13,-87 -102,-87 -49,0 -101,15 -135,37l-25 -82c37,-23 102,-44 181,-44 160,0 207,102 207,211l0 181c0,45 2,89 7,120l-114 0z"/>
  <path class="fil1" d="M7122 583c-4,-89 -9,-197 -8,-291l-3 0c-23,84 -51,178 -82,265l-101 300 -98 0 -93 -296c-27,-88 -51,-183 -70,-269l-2 0c-3,90 -7,200 -12,295l-15 279 -118 0 46 -693 167 0 90 279c25,81 46,163 64,241l3 0c19,-75 42,-160 69,-242l96 -278 164 0 40 693 -123 0 -13 -283z"/>
  <path class="fil1" d="M7384 728c41,24 103,44 168,44 81,0 126,-38 126,-95 0,-52 -35,-83 -123,-115 -114,-41 -187,-102 -187,-201 0,-113 95,-199 245,-199 75,0 131,16 167,35l-31 102c-25,-13 -73,-33 -138,-33 -80,0 -115,43 -115,83 0,53 40,78 133,114 120,45 179,106 179,206 0,111 -84,208 -263,208 -73,0 -149,-21 -187,-43l28 -105z"/>
  <path class="fil1" d="M8289 851c-27,12 -79,26 -142,26 -156,0 -258,-100 -258,-255 0,-150 103,-267 279,-267 46,0 94,10 122,24l-23 95c-21,-9 -50,-20 -96,-20 -97,0 -154,71 -153,162 0,103 67,161 153,161 44,0 75,-9 100,-20l17 94z"/>
 </g>
</svg>
